<svg xmlns="http://www.w3.org/2000/svg" viewBox="0 0 100 100" width="100" height="100" role="img" aria-label="swag2mcp icon">
  <defs>
    <linearGradient id="sparkGrad" x1="0%" y1="0%" x2="100%" y2="100%">
      <stop offset="0%" stop-color="#a855f7" />
      <stop offset="100%" stop-color="#ec4899" />
    </linearGradient>

    <linearGradient id="arrowGrad" x1="0%" y1="0%" x2="100%" y2="0%">
      <stop offset="0%" stop-color="#0ea5e9" />
      <stop offset="100%" stop-color="#a855f7" />
    </linearGradient>

    <filter id="shadow" x="-20%" y="-20%" width="140%" height="140%">
      <feDropShadow dx="0" dy="4" stdDeviation="6" flood-color="#000000" flood-opacity="0.15" />
    </filter>

    <style>
      .icon-bg { fill: #ffffff; stroke: #e2e8f0; }
      .icon-highlight { stop-color: #ffffff; stop-opacity: 0.6; }

      @media (prefers-color-scheme: dark) {
        .icon-bg { fill: #1e293b; stroke: #334155; }
        .icon-highlight { stop-color: #ffffff; stop-opacity: 0.1; }
      }
    </style>
  </defs>

  <g filter="url(#shadow)">
    <rect x="5" y="5" width="90" height="90" rx="22" class="icon-bg" stroke-width="2" />

    <rect x="5" y="5" width="90" height="45" rx="22" fill="url(#iconHighlight)" style="clip-path: inset(0 0 50% 0); pointer-events: none;" />
    <linearGradient id="iconHighlight" x1="0%" y1="0%" x2="0%" y2="100%">
      <stop offset="0%" class="icon-highlight" />
      <stop offset="100%" stop-color="#ffffff" stop-opacity="0" />
    </linearGradient>

    <path d="M24 28 L16 28 Q8 28 8 36 L8 64 Q8 72 16 72 L24 72" fill="none" stroke="#0ea5e9" stroke-width="5" stroke-linecap="round" stroke-linejoin="round" />
    <path d="M36 28 L44 28 Q52 28 52 36 L52 64 Q52 72 44 72 L36 72" fill="none" stroke="#0ea5e9" stroke-width="5" stroke-linecap="round" stroke-linejoin="round" />

    <path d="M52 46 L62 46 L62 41 L70 48 L62 55 L62 50 L52 50 Z" fill="url(#arrowGrad)" />

    <circle cx="88" cy="50" r="22" fill="url(#sparkGrad)" opacity="0.2" />

    <path d="M88 30 L100 38 L108 50 L100 62 L88 70 L76 62 L68 50 L76 38 Z" fill="url(#sparkGrad)" />
  </g>
</svg>
